<?xml version="1.0" encoding="UTF-8"?>
<svg xmlns="http://www.w3.org/2000/svg" xmlns:xlink="http://www.w3.org/1999/xlink" width="892.17pt" height="892pt" viewBox="0 0 892.17 892" version="1.1">
<g id="surface1">
<path style=" stroke:none;fill-rule:nonzero;fill:rgb(100%,100%,100%);fill-opacity:1;" d="M 446 5.601563 C 203.164063 5.601563 5.601563 203.078125 5.601563 445.8125 C 5.601563 688.753906 203.164063 886.398438 446 886.398438 C 688.933594 886.398438 886.574219 688.753906 886.574219 445.8125 C 886.574219 203.078125 688.933594 5.601563 446 5.601563 "/>
<path style=" stroke:none;fill-rule:nonzero;fill:rgb(82.398987%,67.498779%,40.39917%);fill-opacity:1;" d="M 446 5.601563 C 203.164063 5.601563 5.601563 203.078125 5.601563 445.8125 C 5.601563 688.753906 203.164063 886.398438 446 886.398438 C 688.933594 886.398438 886.574219 688.753906 886.574219 445.8125 C 886.574219 203.078125 688.933594 5.601563 446 5.601563 Z M 446 892 C 200.074219 892 0 691.84375 0 445.8125 C 0 199.992188 200.074219 0 446 0 C 692.019531 0 892.175781 199.992188 892.175781 445.8125 C 892.175781 691.84375 692.019531 892 446 892 "/>
<path style=" stroke:none;fill-rule:evenodd;fill:rgb(82.398987%,67.498779%,40.39917%);fill-opacity:1;" d="M 440.570313 292.238281 C 304.359375 253.164063 146.796875 334.019531 142.453125 499.011719 C 142.992188 680.066406 296.398438 766.910156 432.789063 726.03125 C 436.042969 727.65625 441.113281 728.382813 446 728.554688 C 450.882813 728.382813 455.945313 727.65625 459.199219 726.03125 C 595.785156 766.910156 749.359375 680.066406 749.90625 499.011719 C 745.558594 334.386719 588.730469 253.523438 452.507813 292.054688 L 446.898438 276.140625 C 445.460938 272.164063 444.183594 268.359375 442.746094 264.378906 C 447.625 259.855469 454.3125 257.5 459.199219 253.164063 C 530.109375 271.4375 610.066406 259.492188 669.398438 194.921875 C 673.382813 188.765625 671.574219 186.054688 665.613281 185.6875 C 618.925781 191.113281 583.480469 166.335938 530.292969 184.789063 C 496.828125 197.632813 468.785156 220.964844 455.578125 246.285156 C 451.058594 250.625 447.082031 253.164063 442.746094 257.5 C 415.609375 213.542969 387.925781 171.039063 355.546875 156.558594 C 354.097656 168.679688 352.648438 180.808594 351.210938 192.925781 C 392.453125 216.441406 423.199219 249.542969 440.570313 292.238281 "/>
<path style=" stroke:none;fill-rule:evenodd;fill:rgb(0%,65.098572%,31.399536%);fill-opacity:1;" d="M 472.042969 234.710938 C 467.527344 240.863281 464.441406 246.652344 475.667969 249.730469 C 539.703125 267.089844 601.921875 242.851563 645.339844 210.65625 C 657.105469 200.519531 659.628906 192.746094 646.433594 193.285156 C 596.859375 190.21875 543.3125 157.101563 472.042969 234.710938 "/>
<path style=" stroke:none;fill-rule:evenodd;fill:rgb(0%,68.199158%,93.699646%);fill-opacity:1;" d="M 297.480469 369.296875 L 346.679688 358.269531 C 336.917969 355.726563 326.960938 353.199219 317.015625 350.671875 C 311.230469 354.464844 304.714844 360.617188 297.480469 369.296875 "/>
<path style=" stroke:none;fill-rule:evenodd;fill:rgb(0%,68.199158%,93.699646%);fill-opacity:1;" d="M 326.789063 343.609375 L 375.992188 360.261719 L 468.433594 327.515625 C 524.863281 366.582031 581.308594 406.019531 637.566406 445.277344 C 586.015625 310.507813 442.195313 258.40625 326.789063 343.609375 "/>
<path style=" stroke:none;fill-rule:nonzero;fill:rgb(92.89856%,10.998535%,14.099121%);fill-opacity:1;" d="M 276.953125 690.378906 C 145.621094 611.492188 141.828125 400.75 276.953125 326.941406 C 299.019531 315.011719 324.523438 306.496094 354.015625 302.890625 C 323.8125 311.925781 298.292969 324.601563 272.339844 341.386719 C 153.851563 426.953125 173.480469 595.753906 276.953125 677.347656 C 304.265625 698.871094 337.734375 714.429688 376.628906 720.390625 C 337.734375 717.863281 304.632813 707.007813 276.953125 690.378906 Z M 276.953125 630.308594 C 248.1875 588.886719 237.695313 542.574219 238.605469 500.609375 C 239.324219 470.035156 250.363281 427.527344 276.953125 388.996094 C 305.171875 347.925781 350.9375 311.386719 420.21875 298.1875 C 375.183594 281.90625 323.195313 285.921875 276.894531 307.804688 C 207.609375 340.550781 151.410156 411.785156 150.324219 501.148438 C 149.246094 589.238281 198.808594 674.085938 276.953125 710.808594 C 315.660156 729.078125 361.25 735.59375 410.816406 724.921875 C 346.601563 702.847656 303.910156 668.660156 276.953125 630.308594 "/>
<path style=" stroke:none;fill-rule:evenodd;fill:rgb(92.89856%,10.998535%,14.099121%);fill-opacity:1;" d="M 453.773438 536.265625 C 534.804688 536.265625 615.863281 536.265625 697.082031 536.265625 C 683.867188 623.648438 618.761719 704.316406 516.550781 720.050781 C 645.710938 711.738281 713.363281 611.527344 716.074219 511.128906 C 626.894531 511.128906 536.441406 511.128906 446.726563 511.128906 L 446.726563 496.285156 L 742.671875 496.285156 L 742.671875 496.460938 L 742.835938 496.460938 C 742.835938 497.910156 743.027344 499.359375 743.027344 500.8125 C 744.660156 632.507813 632.679688 756.777344 482.167969 724.582031 C 590.527344 687.316406 637.738281 616.226563 650.773438 547.484375 L 466.613281 547.484375 Z M 472.765625 297.847656 C 590.902344 320.277344 640.277344 410.179688 651.859375 474.398438 L 697.621094 474.398438 C 687.488281 400.59375 637.738281 331.675781 539.335938 302.554688 C 645.523438 315.753906 703.042969 391 714.089844 474.398438 L 741.039063 474.398438 C 722.582031 340.898438 578.945313 259.675781 472.765625 297.847656 "/>
<path style=" stroke:none;fill-rule:evenodd;fill:rgb(36.898804%,19.999695%,10.198975%);fill-opacity:1;" d="M 474.398438 554.542969 L 564.652344 554.542969 L 564.652344 564.664063 L 485.253906 564.664063 L 474.398438 554.542969 "/>
<path style=" stroke:none;fill-rule:evenodd;fill:rgb(100%,100%,100%);fill-opacity:1;" d="M 562.503906 571.722656 L 515.460938 571.722656 L 562.503906 612.0625 Z M 562.503906 571.722656 "/>
<path style=" stroke:none;fill-rule:evenodd;fill:rgb(100%,100%,100%);fill-opacity:1;" d="M 506.777344 571.722656 L 492.667969 571.722656 L 509.136719 586.015625 L 517.453125 585.839844 L 559.601563 620.5625 L 561.773438 617.671875 L 506.777344 571.722656 "/>
<path style=" stroke:none;fill-rule:evenodd;fill:rgb(100%,100%,100%);fill-opacity:1;" d="M 569.726563 554.542969 C 594.6875 554.542969 620.375 554.542969 645.339844 554.542969 C 634.664063 604.644531 606.628906 642.085938 569.726563 674.109375 L 569.726563 641.726563 L 584.929688 641.726563 L 569.726563 629.605469 L 569.726563 554.542969 "/>
<path style=" stroke:none;fill-rule:evenodd;fill:rgb(48.999023%,28.199768%,0.39978%);fill-opacity:1;" d="M 294.046875 375.984375 L 353.558594 361.34375 L 374.910156 367.121094 L 467.707031 333.125 L 636.304688 452.152344 L 645.339844 481.097656 L 742.835938 481.097656 L 742.835938 492.492188 L 442.195313 492.492188 L 442.195313 511.128906 L 319.546875 511.128906 L 319.546875 567.199219 L 324.074219 567.199219 L 324.074219 618.570313 L 295.675781 641.914063 L 322.257813 641.914063 C 322.257813 652.230469 322.257813 662.714844 322.257813 673.023438 C 269.808594 626.710938 242.847656 568.109375 244.117188 499.175781 C 245.746094 454.328125 266.726563 404.757813 294.046875 375.984375 "/>
<path style=" stroke:none;fill-rule:evenodd;fill:rgb(36.898804%,19.999695%,10.198975%);fill-opacity:1;" d="M 326.421875 518.898438 L 442.019531 518.898438 L 442.019531 525.960938 L 398.78125 559.96875 L 326.421875 559.96875 L 326.421875 518.898438 "/>
<path style=" stroke:none;fill-rule:evenodd;fill:rgb(100%,100%,100%);fill-opacity:1;" d="M 330.949219 567.925781 L 389.191406 567.925781 L 330.949219 614.050781 Z M 330.949219 567.925781 "/>
<path style=" stroke:none;fill-rule:evenodd;fill:rgb(100%,100%,100%);fill-opacity:1;" d="M 442.019531 535.726563 L 483.082031 571.363281 L 398.78125 571.363281 Z M 442.019531 535.726563 "/>
<path style=" stroke:none;fill-rule:evenodd;fill:rgb(100%,100%,100%);fill-opacity:1;" d="M 396.972656 637.378906 L 313.222656 637.378906 L 396.972656 572.273438 Z M 396.972656 637.378906 "/>
<path style=" stroke:none;fill-rule:evenodd;fill:rgb(100%,100%,100%);fill-opacity:1;" d="M 486.871094 637.378906 L 564.300781 637.378906 L 486.871094 576.0625 Z M 486.871094 637.378906 "/>
<path style=" stroke:none;fill-rule:evenodd;fill:rgb(82.398987%,67.498779%,40.39917%);fill-opacity:1;" d="M 432.0625 554.894531 C 434.78125 554.894531 436.949219 557.066406 436.949219 559.78125 C 436.949219 562.503906 434.78125 564.664063 432.0625 564.664063 C 429.53125 564.664063 427.359375 562.503906 427.359375 559.78125 C 427.359375 557.066406 429.53125 554.894531 432.0625 554.894531 "/>
<path style=" stroke:none;fill-rule:evenodd;fill:rgb(82.398987%,67.498779%,40.39917%);fill-opacity:1;" d="M 450.703125 554.894531 C 453.414063 554.894531 455.578125 557.066406 455.578125 559.78125 C 455.578125 562.503906 453.414063 564.664063 450.703125 564.664063 C 448.171875 564.664063 445.816406 562.503906 445.816406 559.78125 C 445.816406 557.066406 448.171875 554.894531 450.703125 554.894531 "/>
<path style=" stroke:none;fill-rule:nonzero;fill:rgb(82.398987%,67.498779%,40.39917%);fill-opacity:1;" d="M 369.035156 607.4375 L 377.339844 607.4375 L 377.339844 599.136719 L 369.035156 599.136719 Z M 377.898438 608 L 368.476563 608 L 368.476563 598.578125 L 377.898438 598.578125 L 377.898438 608 "/>
<path style=" stroke:none;fill-rule:nonzero;fill:rgb(82.398987%,67.498779%,40.39917%);fill-opacity:1;" d="M 369.035156 616.308594 L 377.339844 616.308594 L 377.339844 608 L 369.035156 608 Z M 377.898438 616.867188 L 368.476563 616.867188 L 368.476563 607.4375 L 377.898438 607.4375 L 377.898438 616.867188 "/>
<path style=" stroke:none;fill-rule:nonzero;fill:rgb(82.398987%,67.498779%,40.39917%);fill-opacity:1;" d="M 369.035156 625.351563 L 377.339844 625.351563 L 377.339844 616.867188 L 369.035156 616.867188 Z M 377.898438 625.914063 L 368.476563 625.914063 L 368.476563 616.308594 L 377.898438 616.308594 L 377.898438 625.914063 "/>
<path style=" stroke:none;fill-rule:nonzero;fill:rgb(82.398987%,67.498779%,40.39917%);fill-opacity:1;" d="M 377.898438 607.4375 L 386.195313 607.4375 L 386.195313 599.136719 L 377.898438 599.136719 Z M 386.753906 608 L 377.339844 608 L 377.339844 598.578125 L 386.753906 598.578125 L 386.753906 608 "/>
<path style=" stroke:none;fill-rule:nonzero;fill:rgb(82.398987%,67.498779%,40.39917%);fill-opacity:1;" d="M 377.898438 616.308594 L 386.195313 616.308594 L 386.195313 608 L 377.898438 608 Z M 386.753906 616.867188 L 377.339844 616.867188 L 377.339844 607.4375 L 386.753906 607.4375 L 386.753906 616.867188 "/>
<path style=" stroke:none;fill-rule:nonzero;fill:rgb(82.398987%,67.498779%,40.39917%);fill-opacity:1;" d="M 377.898438 625.351563 L 386.195313 625.351563 L 386.195313 616.867188 L 377.898438 616.867188 Z M 386.753906 625.914063 L 377.339844 625.914063 L 377.339844 616.308594 L 386.753906 616.308594 L 386.753906 625.914063 "/>
<path style=" stroke:none;fill-rule:evenodd;fill:rgb(100%,100%,100%);fill-opacity:1;" d="M 326.789063 640.828125 L 396.972656 640.828125 C 396.972656 665.609375 396.972656 690.390625 396.972656 715.164063 C 373.640625 707.578125 350.117188 694.921875 326.789063 677.191406 L 326.789063 640.828125 "/>
<path style=" stroke:none;fill-rule:nonzero;fill:rgb(82.398987%,67.498779%,40.39917%);fill-opacity:1;" d="M 351.121094 664.234375 L 360.695313 664.234375 L 360.695313 654.675781 L 351.121094 654.675781 Z M 361.253906 664.796875 L 350.5625 664.796875 L 350.5625 654.113281 L 361.253906 654.113281 L 361.253906 664.796875 "/>
<path style=" stroke:none;fill-rule:nonzero;fill:rgb(82.398987%,67.498779%,40.39917%);fill-opacity:1;" d="M 379.519531 664.234375 L 389.09375 664.234375 L 389.09375 654.675781 L 379.519531 654.675781 Z M 389.652344 664.796875 L 378.960938 664.796875 L 378.960938 654.113281 L 389.652344 654.113281 L 389.652344 664.796875 "/>
<path style=" stroke:none;fill-rule:nonzero;fill:rgb(82.398987%,67.498779%,40.39917%);fill-opacity:1;" d="M 351.121094 674.367188 L 360.695313 674.367188 L 360.695313 664.796875 L 351.121094 664.796875 Z M 361.253906 674.929688 L 350.5625 674.929688 L 350.5625 664.234375 L 361.253906 664.234375 L 361.253906 674.929688 "/>
<path style=" stroke:none;fill-rule:nonzero;fill:rgb(82.398987%,67.498779%,40.39917%);fill-opacity:1;" d="M 379.519531 674.367188 L 389.09375 674.367188 L 389.09375 664.796875 L 379.519531 664.796875 Z M 389.652344 674.929688 L 378.960938 674.929688 L 378.960938 664.234375 L 389.652344 664.234375 L 389.652344 674.929688 "/>
<path style=" stroke:none;fill-rule:nonzero;fill:rgb(82.398987%,67.498779%,40.39917%);fill-opacity:1;" d="M 351.121094 684.5 L 360.695313 684.5 L 360.695313 674.929688 L 351.121094 674.929688 Z M 361.253906 685.058594 L 350.5625 685.058594 L 350.5625 674.367188 L 361.253906 674.367188 L 361.253906 685.058594 "/>
<path style=" stroke:none;fill-rule:nonzero;fill:rgb(82.398987%,67.498779%,40.39917%);fill-opacity:1;" d="M 379.519531 684.5 L 389.09375 684.5 L 389.09375 674.929688 L 379.519531 674.929688 Z M 389.652344 685.058594 L 378.960938 685.058594 L 378.960938 674.367188 L 389.652344 674.367188 L 389.652344 685.058594 "/>
<path style=" stroke:none;fill-rule:nonzero;fill:rgb(82.398987%,67.498779%,40.39917%);fill-opacity:1;" d="M 340.996094 664.234375 L 350.5625 664.234375 L 350.5625 654.675781 L 340.996094 654.675781 Z M 351.121094 664.796875 L 340.433594 664.796875 L 340.433594 654.113281 L 351.121094 654.113281 L 351.121094 664.796875 "/>
<path style=" stroke:none;fill-rule:nonzero;fill:rgb(82.398987%,67.498779%,40.39917%);fill-opacity:1;" d="M 369.394531 664.234375 L 378.960938 664.234375 L 378.960938 654.675781 L 369.394531 654.675781 Z M 379.519531 664.796875 L 368.835938 664.796875 L 368.835938 654.113281 L 379.519531 654.113281 L 379.519531 664.796875 "/>
<path style=" stroke:none;fill-rule:nonzero;fill:rgb(82.398987%,67.498779%,40.39917%);fill-opacity:1;" d="M 340.996094 674.367188 L 350.5625 674.367188 L 350.5625 664.796875 L 340.996094 664.796875 Z M 351.121094 674.929688 L 340.433594 674.929688 L 340.433594 664.234375 L 351.121094 664.234375 L 351.121094 674.929688 "/>
<path style=" stroke:none;fill-rule:nonzero;fill:rgb(82.398987%,67.498779%,40.39917%);fill-opacity:1;" d="M 369.394531 674.367188 L 378.960938 674.367188 L 378.960938 664.796875 L 369.394531 664.796875 Z M 379.519531 674.929688 L 368.835938 674.929688 L 368.835938 664.234375 L 379.519531 664.234375 L 379.519531 674.929688 "/>
<path style=" stroke:none;fill-rule:nonzero;fill:rgb(82.398987%,67.498779%,40.39917%);fill-opacity:1;" d="M 340.996094 684.5 L 350.5625 684.5 L 350.5625 674.929688 L 340.996094 674.929688 Z M 351.121094 685.058594 L 340.433594 685.058594 L 340.433594 674.367188 L 351.121094 674.367188 L 351.121094 685.058594 "/>
<path style=" stroke:none;fill-rule:nonzero;fill:rgb(82.398987%,67.498779%,40.39917%);fill-opacity:1;" d="M 369.394531 684.5 L 378.960938 684.5 L 378.960938 674.929688 L 369.394531 674.929688 Z M 379.519531 685.058594 L 368.835938 685.058594 L 368.835938 674.367188 L 379.519531 674.367188 L 379.519531 685.058594 "/>
<path style=" stroke:none;fill-rule:evenodd;fill:rgb(100%,100%,100%);fill-opacity:1;" d="M 486.871094 640.277344 L 564.839844 640.277344 C 564.839844 652.769531 564.839844 665.242188 564.839844 677.546875 C 543.136719 694.1875 516.363281 706.855469 486.871094 717.710938 L 486.871094 640.277344 "/>
<path style=" stroke:none;fill-rule:nonzero;fill:rgb(82.398987%,67.498779%,40.39917%);fill-opacity:1;" d="M 506.332031 664.234375 L 515.902344 664.234375 L 515.902344 654.675781 L 506.332031 654.675781 Z M 516.464844 664.796875 L 505.773438 664.796875 L 505.773438 654.113281 L 516.464844 654.113281 L 516.464844 664.796875 "/>
<path style=" stroke:none;fill-rule:nonzero;fill:rgb(82.398987%,67.498779%,40.39917%);fill-opacity:1;" d="M 534.546875 664.234375 L 544.121094 664.234375 L 544.121094 654.675781 L 534.546875 654.675781 Z M 544.679688 664.796875 L 533.988281 664.796875 L 533.988281 654.113281 L 544.679688 654.113281 L 544.679688 664.796875 "/>
<path style=" stroke:none;fill-rule:nonzero;fill:rgb(82.398987%,67.498779%,40.39917%);fill-opacity:1;" d="M 506.332031 674.367188 L 515.902344 674.367188 L 515.902344 664.796875 L 506.332031 664.796875 Z M 516.464844 674.929688 L 505.773438 674.929688 L 505.773438 664.234375 L 516.464844 664.234375 L 516.464844 674.929688 "/>
<path style=" stroke:none;fill-rule:nonzero;fill:rgb(82.398987%,67.498779%,40.39917%);fill-opacity:1;" d="M 534.546875 674.367188 L 544.121094 674.367188 L 544.121094 664.796875 L 534.546875 664.796875 Z M 544.679688 674.929688 L 533.988281 674.929688 L 533.988281 664.234375 L 544.679688 664.234375 L 544.679688 674.929688 "/>
<path style=" stroke:none;fill-rule:nonzero;fill:rgb(82.398987%,67.498779%,40.39917%);fill-opacity:1;" d="M 506.332031 684.5 L 515.902344 684.5 L 515.902344 674.929688 L 506.332031 674.929688 Z M 516.464844 685.058594 L 505.773438 685.058594 L 505.773438 674.367188 L 516.464844 674.367188 L 516.464844 685.058594 "/>
<path style=" stroke:none;fill-rule:nonzero;fill:rgb(82.398987%,67.498779%,40.39917%);fill-opacity:1;" d="M 534.546875 684.5 L 544.121094 684.5 L 544.121094 674.929688 L 534.546875 674.929688 Z M 544.679688 685.058594 L 533.988281 685.058594 L 533.988281 674.367188 L 544.679688 674.367188 L 544.679688 685.058594 "/>
<path style=" stroke:none;fill-rule:nonzero;fill:rgb(82.398987%,67.498779%,40.39917%);fill-opacity:1;" d="M 496.015625 664.234375 L 505.773438 664.234375 L 505.773438 654.675781 L 496.015625 654.675781 Z M 506.332031 664.796875 L 495.460938 664.796875 L 495.460938 654.113281 L 506.332031 654.113281 L 506.332031 664.796875 "/>
<path style=" stroke:none;fill-rule:nonzero;fill:rgb(82.398987%,67.498779%,40.39917%);fill-opacity:1;" d="M 524.417969 664.234375 L 533.988281 664.234375 L 533.988281 654.675781 L 524.417969 654.675781 Z M 534.546875 664.796875 L 523.855469 664.796875 L 523.855469 654.113281 L 534.546875 654.113281 L 534.546875 664.796875 "/>
<path style=" stroke:none;fill-rule:nonzero;fill:rgb(82.398987%,67.498779%,40.39917%);fill-opacity:1;" d="M 496.015625 674.367188 L 505.773438 674.367188 L 505.773438 664.796875 L 496.015625 664.796875 Z M 506.332031 674.929688 L 495.460938 674.929688 L 495.460938 664.234375 L 506.332031 664.234375 L 506.332031 674.929688 "/>
<path style=" stroke:none;fill-rule:nonzero;fill:rgb(82.398987%,67.498779%,40.39917%);fill-opacity:1;" d="M 524.417969 674.367188 L 533.988281 674.367188 L 533.988281 664.796875 L 524.417969 664.796875 Z M 534.546875 674.929688 L 523.855469 674.929688 L 523.855469 664.234375 L 534.546875 664.234375 L 534.546875 674.929688 "/>
<path style=" stroke:none;fill-rule:nonzero;fill:rgb(82.398987%,67.498779%,40.39917%);fill-opacity:1;" d="M 496.015625 684.5 L 505.773438 684.5 L 505.773438 674.929688 L 496.015625 674.929688 Z M 506.332031 685.058594 L 495.460938 685.058594 L 495.460938 674.367188 L 506.332031 674.367188 L 506.332031 685.058594 "/>
<path style=" stroke:none;fill-rule:nonzero;fill:rgb(82.398987%,67.498779%,40.39917%);fill-opacity:1;" d="M 524.417969 684.5 L 533.988281 684.5 L 533.988281 674.929688 L 524.417969 674.929688 Z M 534.546875 685.058594 L 523.855469 685.058594 L 523.855469 674.367188 L 534.546875 674.367188 L 534.546875 685.058594 "/>
<path style=" stroke:none;fill-rule:nonzero;fill:rgb(82.398987%,67.498779%,40.39917%);fill-opacity:1;" d="M 493.492188 607.4375 L 501.980469 607.4375 L 501.980469 599.136719 L 493.492188 599.136719 Z M 502.539063 608 L 492.933594 608 L 492.933594 598.578125 L 502.539063 598.578125 L 502.539063 608 "/>
<path style=" stroke:none;fill-rule:nonzero;fill:rgb(82.398987%,67.498779%,40.39917%);fill-opacity:1;" d="M 493.492188 616.308594 L 501.980469 616.308594 L 501.980469 608 L 493.492188 608 Z M 502.539063 616.867188 L 492.933594 616.867188 L 492.933594 607.4375 L 502.539063 607.4375 L 502.539063 616.867188 "/>
<path style=" stroke:none;fill-rule:nonzero;fill:rgb(82.398987%,67.498779%,40.39917%);fill-opacity:1;" d="M 493.492188 625.351563 L 501.980469 625.351563 L 501.980469 616.867188 L 493.492188 616.867188 Z M 502.539063 625.914063 L 492.933594 625.914063 L 492.933594 616.308594 L 502.539063 616.308594 L 502.539063 625.914063 "/>
<path style=" stroke:none;fill-rule:nonzero;fill:rgb(82.398987%,67.498779%,40.39917%);fill-opacity:1;" d="M 502.539063 607.4375 L 510.839844 607.4375 L 510.839844 599.136719 L 502.539063 599.136719 Z M 511.402344 608 L 501.980469 608 L 501.980469 598.578125 L 511.402344 598.578125 L 511.402344 608 "/>
<path style=" stroke:none;fill-rule:nonzero;fill:rgb(82.398987%,67.498779%,40.39917%);fill-opacity:1;" d="M 502.539063 616.308594 L 510.839844 616.308594 L 510.839844 608 L 502.539063 608 Z M 511.402344 616.867188 L 501.980469 616.867188 L 501.980469 607.4375 L 511.402344 607.4375 L 511.402344 616.867188 "/>
<path style=" stroke:none;fill-rule:nonzero;fill:rgb(82.398987%,67.498779%,40.39917%);fill-opacity:1;" d="M 502.539063 625.351563 L 510.839844 625.351563 L 510.839844 616.867188 L 502.539063 616.867188 Z M 511.402344 625.914063 L 501.980469 625.914063 L 501.980469 616.308594 L 511.402344 616.308594 L 511.402344 625.914063 "/>
<path style=" stroke:none;fill-rule:evenodd;fill:rgb(100%,100%,100%);fill-opacity:1;" d="M 401.316406 575.695313 L 482.355469 575.695313 L 482.355469 628.886719 L 401.316406 628.886719 L 401.316406 575.695313 "/>
<path style=" stroke:none;fill-rule:evenodd;fill:rgb(100%,100%,100%);fill-opacity:1;" d="M 401.316406 631.417969 L 482.355469 631.417969 L 482.355469 643.359375 L 401.316406 643.359375 L 401.316406 631.417969 "/>
<path style=" stroke:none;fill-rule:evenodd;fill:rgb(100%,100%,100%);fill-opacity:1;" d="M 401.316406 658.191406 C 410.90625 652.046875 422.839844 648.957031 434.960938 646.246094 L 401.316406 646.246094 C 401.316406 650.222656 401.316406 654.21875 401.316406 658.191406 "/>
<path style=" stroke:none;fill-rule:evenodd;fill:rgb(100%,100%,100%);fill-opacity:1;" d="M 482.355469 658.191406 C 472.410156 652.046875 460.648438 648.957031 448.53125 646.246094 L 482.355469 646.246094 C 482.355469 650.222656 482.355469 654.21875 482.355469 658.191406 "/>
<path style=" stroke:none;fill-rule:nonzero;fill:rgb(82.398987%,67.498779%,40.39917%);fill-opacity:1;" d="M 412.863281 599.613281 L 420.15625 599.613281 L 420.15625 589.421875 L 412.863281 589.421875 Z M 420.820313 600.277344 L 412.195313 600.277344 L 412.195313 588.761719 L 420.820313 588.761719 L 420.820313 600.277344 "/>
<path style=" stroke:none;fill-rule:nonzero;fill:rgb(82.398987%,67.498779%,40.39917%);fill-opacity:1;" d="M 448.863281 599.613281 L 456.15625 599.613281 L 456.15625 589.421875 L 448.863281 589.421875 Z M 456.824219 600.277344 L 448.195313 600.277344 L 448.195313 588.761719 L 456.824219 588.761719 L 456.824219 600.277344 "/>
<path style=" stroke:none;fill-rule:nonzero;fill:rgb(82.398987%,67.498779%,40.39917%);fill-opacity:1;" d="M 412.863281 610.472656 L 420.15625 610.472656 L 420.15625 600.277344 L 412.863281 600.277344 Z M 420.820313 611.136719 L 412.195313 611.136719 L 412.195313 599.613281 L 420.820313 599.613281 L 420.820313 611.136719 "/>
<path style=" stroke:none;fill-rule:nonzero;fill:rgb(82.398987%,67.498779%,40.39917%);fill-opacity:1;" d="M 448.863281 610.472656 L 456.15625 610.472656 L 456.15625 600.277344 L 448.863281 600.277344 Z M 456.824219 611.136719 L 448.195313 611.136719 L 448.195313 599.613281 L 456.824219 599.613281 L 456.824219 611.136719 "/>
<path style=" stroke:none;fill-rule:nonzero;fill:rgb(82.398987%,67.498779%,40.39917%);fill-opacity:1;" d="M 412.863281 621.316406 L 420.15625 621.316406 L 420.15625 611.136719 L 412.863281 611.136719 Z M 420.820313 621.980469 L 412.195313 621.980469 L 412.195313 610.472656 L 420.820313 610.472656 L 420.820313 621.980469 "/>
<path style=" stroke:none;fill-rule:nonzero;fill:rgb(82.398987%,67.498779%,40.39917%);fill-opacity:1;" d="M 448.863281 621.316406 L 456.15625 621.316406 L 456.15625 611.136719 L 448.863281 611.136719 Z M 456.824219 621.980469 L 448.195313 621.980469 L 448.195313 610.472656 L 456.824219 610.472656 L 456.824219 621.980469 "/>
<path style=" stroke:none;fill-rule:nonzero;fill:rgb(82.398987%,67.498779%,40.39917%);fill-opacity:1;" d="M 420.820313 599.613281 L 428.292969 599.613281 L 428.292969 589.421875 L 420.820313 589.421875 Z M 428.960938 600.277344 L 420.15625 600.277344 L 420.15625 588.761719 L 428.960938 588.761719 L 428.960938 600.277344 "/>
<path style=" stroke:none;fill-rule:nonzero;fill:rgb(82.398987%,67.498779%,40.39917%);fill-opacity:1;" d="M 456.824219 599.613281 L 464.109375 599.613281 L 464.109375 589.421875 L 456.824219 589.421875 Z M 464.773438 600.277344 L 456.15625 600.277344 L 456.15625 588.761719 L 464.773438 588.761719 L 464.773438 600.277344 "/>
<path style=" stroke:none;fill-rule:nonzero;fill:rgb(82.398987%,67.498779%,40.39917%);fill-opacity:1;" d="M 420.820313 610.472656 L 428.292969 610.472656 L 428.292969 600.277344 L 420.820313 600.277344 Z M 428.960938 611.136719 L 420.15625 611.136719 L 420.15625 599.613281 L 428.960938 599.613281 L 428.960938 611.136719 "/>
<path style=" stroke:none;fill-rule:nonzero;fill:rgb(82.398987%,67.498779%,40.39917%);fill-opacity:1;" d="M 456.824219 610.472656 L 464.109375 610.472656 L 464.109375 600.277344 L 456.824219 600.277344 Z M 464.773438 611.136719 L 456.15625 611.136719 L 456.15625 599.613281 L 464.773438 599.613281 L 464.773438 611.136719 "/>
<path style=" stroke:none;fill-rule:nonzero;fill:rgb(82.398987%,67.498779%,40.39917%);fill-opacity:1;" d="M 420.820313 621.316406 L 428.292969 621.316406 L 428.292969 611.136719 L 420.820313 611.136719 Z M 428.960938 621.980469 L 420.15625 621.980469 L 420.15625 610.472656 L 428.960938 610.472656 L 428.960938 621.980469 "/>
<path style=" stroke:none;fill-rule:nonzero;fill:rgb(82.398987%,67.498779%,40.39917%);fill-opacity:1;" d="M 456.824219 621.316406 L 464.109375 621.316406 L 464.109375 611.136719 L 456.824219 611.136719 Z M 464.773438 621.980469 L 456.15625 621.980469 L 456.15625 610.472656 L 464.773438 610.472656 L 464.773438 621.980469 "/>
<path style=" stroke:none;fill-rule:nonzero;fill:rgb(82.398987%,67.498779%,40.39917%);fill-opacity:1;" d="M 428.960938 599.613281 L 436.257813 599.613281 L 436.257813 589.421875 L 428.960938 589.421875 Z M 436.925781 600.277344 L 428.292969 600.277344 L 428.292969 588.761719 L 436.925781 588.761719 L 436.925781 600.277344 "/>
<path style=" stroke:none;fill-rule:nonzero;fill:rgb(82.398987%,67.498779%,40.39917%);fill-opacity:1;" d="M 464.773438 599.613281 L 472.246094 599.613281 L 472.246094 589.421875 L 464.773438 589.421875 Z M 472.914063 600.277344 L 464.109375 600.277344 L 464.109375 588.761719 L 472.914063 588.761719 L 472.914063 600.277344 "/>
<path style=" stroke:none;fill-rule:nonzero;fill:rgb(82.398987%,67.498779%,40.39917%);fill-opacity:1;" d="M 428.960938 610.472656 L 436.257813 610.472656 L 436.257813 600.277344 L 428.960938 600.277344 Z M 436.925781 611.136719 L 428.292969 611.136719 L 428.292969 599.613281 L 436.925781 599.613281 L 436.925781 611.136719 "/>
<path style=" stroke:none;fill-rule:nonzero;fill:rgb(82.398987%,67.498779%,40.39917%);fill-opacity:1;" d="M 464.773438 610.472656 L 472.246094 610.472656 L 472.246094 600.277344 L 464.773438 600.277344 Z M 472.914063 611.136719 L 464.109375 611.136719 L 464.109375 599.613281 L 472.914063 599.613281 L 472.914063 611.136719 "/>
<path style=" stroke:none;fill-rule:nonzero;fill:rgb(82.398987%,67.498779%,40.39917%);fill-opacity:1;" d="M 428.960938 621.316406 L 436.257813 621.316406 L 436.257813 611.136719 L 428.960938 611.136719 Z M 436.925781 621.980469 L 428.292969 621.980469 L 428.292969 610.472656 L 436.925781 610.472656 L 436.925781 621.980469 "/>
<path style=" stroke:none;fill-rule:nonzero;fill:rgb(82.398987%,67.498779%,40.39917%);fill-opacity:1;" d="M 464.773438 621.316406 L 472.246094 621.316406 L 472.246094 611.136719 L 464.773438 611.136719 Z M 472.914063 621.980469 L 464.109375 621.980469 L 464.109375 610.472656 L 472.914063 610.472656 L 472.914063 621.980469 "/>
<path style=" stroke:none;fill-rule:evenodd;fill:rgb(36.898804%,19.999695%,10.198975%);fill-opacity:1;" d="M 461.371094 661.628906 C 471.6875 663.976563 480.007813 668.320313 482.722656 675.019531 C 482.722656 688.589844 482.722656 703.417969 482.722656 716.988281 C 475.667969 719.324219 468.609375 721.144531 461.371094 722.222656 Z M 430.445313 660.542969 C 438.941406 659.277344 448.171875 659.453125 456.667969 660.730469 L 456.667969 722.773438 C 447.804688 723.859375 439.121094 723.671875 430.445313 722.597656 Z M 401.316406 675.019531 C 404.203125 668.136719 413.792969 663.4375 425.554688 661.265625 L 425.554688 722.042969 C 417.414063 720.609375 409.460938 718.601563 401.316406 715.710938 C 401.316406 702.152344 401.316406 688.589844 401.316406 675.019531 "/>
<path style=" stroke:none;fill-rule:nonzero;fill:rgb(82.398987%,67.498779%,40.39917%);fill-opacity:1;" d="M 133.175781 684.335938 L 139.414063 679.597656 L 151.660156 695.710938 L 136.910156 706.921875 C 134.203125 706.507813 131.144531 705.25 127.734375 703.15625 C 124.324219 701.058594 121.460938 698.488281 119.140625 695.4375 C 116.199219 691.570313 114.445313 687.574219 113.882813 683.460938 C 113.320313 679.347656 114 675.414063 115.921875 671.671875 C 117.84375 667.925781 120.582031 664.703125 124.136719 662.003906 C 127.988281 659.074219 132.03125 657.273438 136.257813 656.613281 C 140.484375 655.957031 144.578125 656.570313 148.546875 658.472656 C 151.578125 659.914063 154.441406 662.398438 157.128906 665.9375 C 160.621094 670.535156 162.386719 674.855469 162.421875 678.910156 C 162.457031 682.960938 161.054688 686.644531 158.21875 689.972656 L 151.1875 683.605469 C 152.609375 681.699219 153.300781 679.625 153.257813 677.386719 C 153.214844 675.144531 152.375 672.949219 150.734375 670.796875 C 148.253906 667.523438 145.242188 665.71875 141.707031 665.363281 C 138.171875 665.007813 134.367188 666.378906 130.292969 669.476563 C 125.898438 672.8125 123.339844 676.296875 122.628906 679.921875 C 121.914063 683.542969 122.761719 686.9375 125.167969 690.105469 C 126.359375 691.671875 127.859375 693.007813 129.667969 694.113281 C 131.480469 695.222656 133.253906 696.007813 134.988281 696.46875 L 139.683594 692.898438 L 133.175781 684.335938 "/>
<path style=" stroke:none;fill-rule:nonzero;fill:rgb(82.398987%,67.498779%,40.39917%);fill-opacity:1;" d="M 186.503906 697.210938 L 192.035156 691.929688 L 197.332031 697.488281 L 191.800781 702.765625 Z M 177.089844 687.335938 L 182.621094 682.058594 L 187.898438 687.59375 L 182.363281 692.867188 Z M 169.644531 683.386719 L 176.121094 690.183594 L 157.890625 707.5625 C 154.996094 710.320313 153.203125 712.191406 152.507813 713.179688 C 151.40625 714.785156 150.960938 716.53125 151.171875 718.417969 C 151.378906 720.3125 152.390625 722.203125 154.199219 724.101563 C 156.035156 726.03125 157.816406 727.109375 159.539063 727.339844 C 161.261719 727.5625 162.792969 727.230469 164.128906 726.339844 C 165.46875 725.4375 167.46875 723.726563 170.132813 721.183594 L 188.753906 703.433594 L 195.234375 710.230469 L 177.554688 727.085938 C 173.511719 730.9375 170.480469 733.476563 168.460938 734.699219 C 166.445313 735.917969 164.390625 736.589844 162.300781 736.695313 C 160.210938 736.800781 158.039063 736.355469 155.78125 735.351563 C 153.523438 734.34375 151.125 732.511719 148.585938 729.847656 C 145.519531 726.632813 143.566406 723.839844 142.726563 721.472656 C 141.886719 719.105469 141.597656 716.871094 141.867188 714.773438 C 142.132813 712.683594 142.773438 710.859375 143.78125 709.3125 C 145.285156 707.03125 147.921875 704.097656 151.6875 700.507813 L 169.644531 683.386719 "/>
<path style=" stroke:none;fill-rule:nonzero;fill:rgb(82.398987%,67.498779%,40.39917%);fill-opacity:1;" d="M 166.980469 747.707031 L 196.691406 711.917969 L 207.503906 720.898438 L 193.730469 750.699219 L 220.414063 731.617188 L 231.253906 740.613281 L 201.546875 776.398438 L 194.835938 770.824219 L 218.21875 742.660156 L 187.730469 764.929688 L 180.773438 759.152344 L 197.078125 725.109375 L 173.695313 753.277344 L 166.980469 747.707031 "/>
<path style=" stroke:none;fill-rule:nonzero;fill:rgb(82.398987%,67.498779%,40.39917%);fill-opacity:1;" d="M 252.292969 750.96875 L 256.457031 744.558594 L 262.894531 748.742188 L 258.730469 755.15625 Z M 240.851563 743.535156 L 245.019531 737.128906 L 251.429688 741.289063 L 247.265625 747.703125 Z M 232.699219 741.414063 L 240.574219 746.53125 L 226.847656 767.65625 C 224.671875 771.007813 223.355469 773.238281 222.90625 774.359375 C 222.203125 776.175781 222.175781 777.980469 222.816406 779.769531 C 223.453125 781.5625 224.871094 783.171875 227.074219 784.597656 C 229.308594 786.050781 231.289063 786.6875 233.015625 786.511719 C 234.746094 786.339844 236.15625 785.660156 237.253906 784.480469 C 238.347656 783.300781 239.894531 781.164063 241.902344 778.078125 L 255.921875 756.507813 L 263.796875 761.621094 L 250.484375 782.105469 C 247.441406 786.785156 245.082031 789.957031 243.398438 791.613281 C 241.714844 793.269531 239.871094 794.390625 237.863281 794.976563 C 235.855469 795.5625 233.640625 795.632813 231.210938 795.175781 C 228.78125 794.71875 226.023438 793.488281 222.9375 791.484375 C 219.214844 789.0625 216.671875 786.796875 215.304688 784.6875 C 213.9375 782.578125 213.144531 780.472656 212.921875 778.371094 C 212.695313 776.269531 212.898438 774.355469 213.523438 772.613281 C 214.460938 770.046875 216.347656 766.582031 219.179688 762.214844 L 232.699219 741.414063 "/>
<path style=" stroke:none;fill-rule:nonzero;fill:rgb(82.398987%,67.498779%,40.39917%);fill-opacity:1;" d="M 249.644531 789.699219 L 258.179688 793.070313 C 257.273438 796.046875 257.242188 798.5625 258.085938 800.609375 C 258.925781 802.65625 260.617188 804.328125 263.160156 805.628906 C 265.851563 807.003906 268.171875 807.472656 270.121094 807.03125 C 272.070313 806.589844 273.433594 805.605469 274.214844 804.082031 C 274.714844 803.105469 274.851563 802.121094 274.628906 801.144531 C 274.40625 800.160156 273.710938 799.050781 272.539063 797.808594 C 271.734375 796.972656 269.808594 795.226563 266.769531 792.578125 C 262.855469 789.179688 260.410156 786.203125 259.429688 783.65625 C 258.054688 780.078125 258.203125 776.652344 259.878906 773.378906 C 260.957031 771.269531 262.566406 769.601563 264.699219 768.378906 C 266.835938 767.152344 269.273438 766.636719 272.011719 766.828125 C 274.753906 767.019531 277.714844 767.929688 280.898438 769.554688 C 286.09375 772.214844 289.425781 775.351563 290.886719 778.972656 C 292.347656 782.59375 292.171875 786.339844 290.359375 790.210938 L 281.808594 786.304688 C 282.539063 783.992188 282.554688 782.070313 281.855469 780.535156 C 281.15625 779.003906 279.628906 777.632813 277.273438 776.429688 C 274.84375 775.1875 272.6875 774.710938 270.804688 775.011719 C 269.589844 775.199219 268.710938 775.824219 268.160156 776.898438 C 267.660156 777.878906 267.644531 778.929688 268.117188 780.050781 C 268.722656 781.472656 270.808594 783.703125 274.382813 786.746094 C 277.960938 789.789063 280.460938 792.320313 281.886719 794.34375 C 283.308594 796.367188 284.117188 798.546875 284.308594 800.890625 C 284.5 803.234375 283.925781 805.714844 282.589844 808.332031 C 281.375 810.699219 279.578125 812.589844 277.199219 813.984375 C 274.824219 815.386719 272.171875 815.96875 269.246094 815.746094 C 266.320313 815.515625 263.0625 814.484375 259.464844 812.644531 C 254.230469 809.96875 250.828125 806.703125 249.261719 802.847656 C 247.691406 798.992188 247.820313 794.609375 249.644531 789.699219 Z M 246.449219 819.421875 L 248.152344 816.089844 C 249.984375 817.285156 251.710938 818.304688 253.332031 819.132813 C 255.007813 819.988281 256.40625 820.320313 257.523438 820.132813 C 258.375 820 258.988281 819.574219 259.351563 818.859375 C 259.675781 818.21875 259.671875 817.515625 259.328125 816.742188 C 258.984375 815.976563 258.199219 815.273438 256.976563 814.648438 C 255.773438 814.035156 254.441406 813.59375 252.988281 813.324219 L 255.152344 810.902344 C 256.882813 811.144531 258.59375 811.699219 260.285156 812.566406 C 262.640625 813.773438 264.164063 815.203125 264.859375 816.867188 C 265.554688 818.527344 265.519531 820.101563 264.761719 821.589844 C 263.914063 823.246094 262.546875 824.246094 260.660156 824.589844 C 258.113281 825.066406 255.132813 824.433594 251.726563 822.691406 C 249.296875 821.449219 247.535156 820.359375 246.449219 819.421875 "/>
<path style=" stroke:none;fill-rule:nonzero;fill:rgb(82.398987%,67.498779%,40.39917%);fill-opacity:1;" d="M 281.3125 822.597656 L 298.074219 779.214844 L 306.835938 782.597656 L 300.234375 799.671875 L 317.398438 806.304688 L 323.996094 789.230469 L 332.753906 792.617188 L 315.992188 836 L 307.234375 832.613281 L 314.5625 813.644531 L 297.398438 807.011719 L 290.070313 825.980469 L 281.3125 822.597656 "/>
<path style=" stroke:none;fill-rule:nonzero;fill:rgb(82.398987%,67.498779%,40.39917%);fill-opacity:1;" d="M 351.5 826.8125 L 349.730469 808.488281 L 339.234375 823.554688 Z M 363.492188 849.03125 L 353.617188 846.410156 L 352.402344 835.160156 L 334.433594 830.394531 L 328.015625 839.617188 L 318.386719 837.0625 L 347.820313 796.753906 L 357.421875 799.304688 L 363.492188 849.03125 "/>
<path style=" stroke:none;fill-rule:nonzero;fill:rgb(82.398987%,67.498779%,40.39917%);fill-opacity:1;" d="M 366.222656 849.34375 L 373.164063 803.355469 L 382.199219 804.71875 L 396.382813 838.269531 L 401.019531 807.5625 L 409.648438 808.863281 L 402.703125 854.851563 L 393.386719 853.441406 L 379.378906 820.65625 L 374.847656 850.644531 L 366.222656 849.34375 "/>
<path style=" stroke:none;fill-rule:nonzero;fill:rgb(82.398987%,67.498779%,40.39917%);fill-opacity:1;" d="M 410.058594 855.496094 L 412.195313 809.039063 L 446.640625 810.625 L 446.28125 818.484375 L 421.214844 817.328125 L 420.738281 827.628906 L 444.0625 828.707031 L 443.703125 836.53125 L 420.378906 835.457031 L 419.796875 848.105469 L 445.75 849.296875 L 445.390625 857.125 L 410.058594 855.496094 "/>
<path style=" stroke:none;fill-rule:nonzero;fill:rgb(82.398987%,67.498779%,40.39917%);fill-opacity:1;" d="M 486.867188 834.425781 L 488.460938 846.761719 L 497.078125 845.648438 C 500.433594 845.214844 502.554688 844.847656 503.429688 844.539063 C 504.78125 844.109375 505.832031 843.351563 506.578125 842.265625 C 507.320313 841.175781 507.589844 839.816406 507.375 838.175781 C 507.199219 836.796875 506.710938 835.664063 505.914063 834.785156 C 505.117188 833.90625 504.058594 833.332031 502.730469 833.050781 C 501.410156 832.777344 498.625 832.910156 494.390625 833.457031 Z M 484.503906 816.085938 L 485.878906 826.75 L 491.984375 825.960938 C 495.613281 825.492188 497.863281 825.152344 498.726563 824.933594 C 500.296875 824.539063 501.480469 823.832031 502.273438 822.796875 C 503.070313 821.765625 503.371094 820.507813 503.179688 819.019531 C 502.992188 817.589844 502.453125 816.484375 501.550781 815.691406 C 500.648438 814.902344 499.410156 814.515625 497.832031 814.523438 C 496.894531 814.539063 494.238281 814.832031 489.851563 815.394531 Z M 474.199219 809.605469 L 492.636719 807.230469 C 496.289063 806.757813 499.027344 806.5625 500.863281 806.636719 C 502.695313 806.707031 504.378906 807.136719 505.921875 807.917969 C 507.460938 808.695313 508.804688 809.835938 509.957031 811.3125 C 511.109375 812.796875 511.8125 814.535156 512.066406 816.527344 C 512.347656 818.6875 512.019531 820.746094 511.089844 822.699219 C 510.160156 824.652344 508.753906 826.210938 506.878906 827.371094 C 509.796875 827.824219 512.136719 828.941406 513.898438 830.71875 C 515.664063 832.496094 516.714844 834.714844 517.0625 837.382813 C 517.332031 839.480469 517.105469 841.578125 516.390625 843.6875 C 515.667969 845.792969 514.539063 847.550781 513.003906 848.953125 C 511.464844 850.355469 509.480469 851.351563 507.042969 851.941406 C 505.511719 852.3125 501.78125 852.902344 495.847656 853.710938 L 480.148438 855.734375 L 474.199219 809.605469 "/>
<path style=" stroke:none;fill-rule:nonzero;fill:rgb(82.398987%,67.498779%,40.39917%);fill-opacity:1;" d="M 525.539063 849.324219 L 514.648438 804.109375 L 548.171875 796.03125 L 550.015625 803.683594 L 525.617188 809.558594 L 528.03125 819.582031 L 550.730469 814.113281 L 552.566406 821.730469 L 529.871094 827.199219 L 532.835938 839.507813 L 558.09375 833.417969 L 559.925781 841.039063 L 525.539063 849.324219 "/>
<path style=" stroke:none;fill-rule:nonzero;fill:rgb(82.398987%,67.498779%,40.39917%);fill-opacity:1;" d="M 566.484375 838.929688 L 551.316406 795.371094 L 560.183594 792.285156 L 572.773438 828.441406 L 594.828125 820.765625 L 597.402344 828.167969 L 566.484375 838.929688 "/>
<path style=" stroke:none;fill-rule:nonzero;fill:rgb(82.398987%,67.498779%,40.39917%);fill-opacity:1;" d="M 602.367188 826.109375 L 582.832031 783.902344 L 614.128906 769.417969 L 617.429688 776.5625 L 594.660156 787.097656 L 598.992188 796.453125 L 620.179688 786.648438 L 623.46875 793.757813 L 602.28125 803.566406 L 607.597656 815.050781 L 631.179688 804.144531 L 634.46875 811.253906 L 602.367188 826.109375 "/>
<path style=" stroke:none;fill-rule:nonzero;fill:rgb(82.398987%,67.498779%,40.39917%);fill-opacity:1;" d="M 628.675781 770.105469 L 644.53125 796.515625 L 650.542969 792.910156 C 652.792969 791.558594 654.335938 790.457031 655.183594 789.605469 C 656.292969 788.496094 657.042969 787.289063 657.4375 785.996094 C 657.832031 784.695313 657.761719 782.992188 657.234375 780.878906 C 656.707031 778.769531 655.515625 776.167969 653.664063 773.089844 C 651.816406 770.003906 650.125 767.800781 648.589844 766.476563 C 647.058594 765.15625 645.523438 764.324219 643.988281 763.984375 C 642.453125 763.648438 640.835938 763.769531 639.132813 764.34375 C 637.855469 764.769531 635.578125 765.960938 632.296875 767.933594 Z M 616.578125 768.191406 L 631.292969 759.359375 C 634.613281 757.363281 637.296875 756.105469 639.339844 755.566406 C 642.09375 754.851563 644.828125 754.871094 647.554688 755.632813 C 650.277344 756.386719 652.839844 757.777344 655.238281 759.804688 C 657.640625 761.828125 659.960938 764.707031 662.203125 768.445313 C 664.171875 771.730469 665.460938 774.800781 666.074219 777.664063 C 666.820313 781.167969 666.804688 784.367188 666.03125 787.273438 C 665.449219 789.472656 664.203125 791.664063 662.285156 793.851563 C 660.839844 795.480469 658.636719 797.1875 655.664063 798.972656 L 640.511719 808.066406 L 616.578125 768.191406 "/>
<path style=" stroke:none;fill-rule:nonzero;fill:rgb(82.398987%,67.498779%,40.39917%);fill-opacity:1;" d="M 678.332031 784.449219 L 651.527344 746.445313 L 659.203125 741.035156 L 686.003906 779.039063 Z M 650.273438 744.066406 L 645.414063 737.171875 L 652.566406 732.125 L 657.429688 739.019531 L 650.273438 744.066406 "/>
<path style=" stroke:none;fill-rule:nonzero;fill:rgb(82.398987%,67.498779%,40.39917%);fill-opacity:1;" d="M 701.109375 767.578125 L 688.753906 752.398438 L 658.542969 742.265625 L 667.082031 735.316406 L 687.179688 742.679688 L 683.886719 721.640625 L 692.277344 714.808594 L 696.050781 746.542969 L 708.367188 761.675781 L 701.109375 767.578125 "/>
<path style=" stroke:none;fill-rule:nonzero;fill:rgb(82.398987%,67.498779%,40.39917%);fill-opacity:1;" d="M 723.988281 748.433594 L 691.140625 715.511719 L 715.550781 691.15625 L 721.109375 696.726563 L 703.347656 714.449219 L 710.628906 721.75 L 727.15625 705.257813 L 732.691406 710.804688 L 716.164063 727.292969 L 725.101563 736.253906 L 743.496094 717.90625 L 749.03125 723.449219 L 723.988281 748.433594 "/>
<path style=" stroke:none;fill-rule:nonzero;fill:rgb(82.398987%,67.498779%,40.39917%);fill-opacity:1;" d="M 740.289063 710.652344 L 745.382813 703.015625 C 748.105469 704.53125 750.554688 705.09375 752.730469 704.699219 C 754.910156 704.308594 756.902344 703.003906 758.710938 700.796875 C 760.621094 698.453125 761.570313 696.285156 761.546875 694.289063 C 761.523438 692.289063 760.851563 690.746094 759.527344 689.667969 C 758.675781 688.972656 757.746094 688.628906 756.742188 688.636719 C 755.734375 688.648438 754.5 689.09375 753.042969 689.980469 C 752.054688 690.589844 749.941406 692.105469 746.714844 694.519531 C 742.558594 697.628906 739.140625 699.390625 736.445313 699.8125 C 732.660156 700.402344 729.339844 699.535156 726.492188 697.207031 C 724.65625 695.710938 723.363281 693.785156 722.617188 691.441406 C 721.871094 689.09375 721.878906 686.605469 722.644531 683.964844 C 723.40625 681.324219 724.917969 678.621094 727.179688 675.851563 C 730.875 671.335938 734.648438 668.742188 738.492188 668.074219 C 742.34375 667.410156 745.96875 668.371094 749.371094 670.960938 L 743.75 678.488281 C 741.644531 677.292969 739.765625 676.871094 738.121094 677.234375 C 736.472656 677.59375 734.8125 678.800781 733.136719 680.847656 C 731.414063 682.960938 730.496094 684.964844 730.386719 686.871094 C 730.316406 688.101563 730.746094 689.089844 731.679688 689.851563 C 732.53125 690.546875 733.554688 690.78125 734.746094 690.558594 C 736.269531 690.269531 738.886719 688.695313 742.617188 685.84375 C 746.339844 682.988281 749.34375 681.078125 751.621094 680.109375 C 753.898438 679.144531 756.199219 678.816406 758.53125 679.121094 C 760.863281 679.429688 763.167969 680.511719 765.445313 682.375 C 767.503906 684.0625 768.972656 686.210938 769.835938 688.828125 C 770.699219 691.449219 770.714844 694.167969 769.878906 696.976563 C 769.042969 699.789063 767.347656 702.761719 764.785156 705.886719 C 761.066406 710.441406 757.160156 713.078125 753.0625 713.800781 C 748.964844 714.519531 744.703125 713.46875 740.289063 710.652344 "/>
<path style=" stroke:none;fill-rule:nonzero;fill:rgb(82.398987%,67.498779%,40.39917%);fill-opacity:1;" d="M 778.839844 686.339844 L 740.886719 659.457031 L 746.316406 651.796875 L 784.265625 678.679688 Z M 738.914063 657.628906 L 732.027344 652.753906 L 737.089844 645.605469 L 743.976563 650.488281 L 738.914063 657.628906 "/>
</g>
</svg>
